inDegrees=yes
name=ik_S53_A06_T02
DataType=double
version=3
OpenSimVersion=4.3-2021-08-27-4bc7ad9
endheader
time	pelvis_tilt	pelvis_list	pelvis_rotation	pelvis_tx	pelvis_ty	pelvis_tz	hip_flexion_r	hip_adduction_r	hip_rotation_r	knee_angle_r	knee_angle_r_beta	ankle_angle_r	subtalar_angle_r	mtp_angle_r	hip_flexion_l	hip_adduction_l	hip_rotation_l	knee_angle_l	knee_angle_l_beta	ankle_angle_l	subtalar_angle_l	mtp_angle_l	lumbar_extension	lumbar_bending	lumbar_rotation	arm_flex_r	arm_add_r	arm_rot_r	elbow_flex_r	pro_sup_r	wrist_flex_r	wrist_dev_r	arm_flex_l	arm_add_l	arm_rot_l	elbow_flex_l	pro_sup_l	wrist_flex_l	wrist_dev_l
18.65000000000022	-8.268204833483081	-3.413131526734492	19.94923041499816	0	0.9399999999999999	0	45.41917315665161	-10.01514644991394	-10.18830594249841	54.47602533140057	0.950786005432775	0	0	0	45.41917315665161	-10.01514644991394	-10.18830594249841	54.47602533140057	0.950786005432775	0	0	0	-6.158492877129532	0.3228806757095292	5.672505645447671	42.95006999151154	-7.972935738646566	3.566846833643669	48.25943602396149	143.097813222877	0	0	78.24474261817238	13.18804337543056	19.97818332879051	9.34690823857847	79.87810223080129	0	0
18.66666666666689	-8.252117050286527	-3.410984724049462	19.95296319153407	0	0.9399999999999999	0	45.41838472082199	-10.01505369156237	-10.18754114203047	54.47669101335514	0.9507976237746535	0	0	0	45.41838472082199	-10.01505369156237	-10.18754114203047	54.47669101335514	0.9507976237746535	0	0	0	-6.146037215608217	0.3181208805959018	5.668028809992994	42.91997141646967	-7.968936095807686	3.575642189908847	48.26466899814435	143.058318496773	0	0	78.24366672895765	13.15836759157651	19.97397167986163	9.508097703124831	79.82088305889957	0	0
18.68333333333355	-8.216312160970917	-3.442792694326965	20.06223798903184	0	0.9399999999999999	0	45.41826730410915	-10.01503900057928	-10.18742356382081	54.47678977693716	0.9507993475243407	0	0	0	45.41826730410915	-10.01503900057928	-10.18742356382081	54.47678977693716	0.9507993475243407	0	0	0	-6.11958238203684	0.2670087360385326	5.732504893353025	42.87869661103717	-8.012000281103559	3.428886318825112	48.24407128332692	143.0474966349353	0	0	78.20660050337636	13.22814999837569	20.13214245278636	9.930653447605719	79.67039551313098	0	0
18.70000000000022	-8.211051364319628	-3.442151671708884	20.06483895094927	0	0.9399999999999999	0	45.4181486467397	-10.01502415219844	-10.18730472003842	54.47688952223322	0.9508010884081703	0	0	0	45.4181486467397	-10.01502415219844	-10.18730472003842	54.47688952223322	0.9508010884081703	0	0	0	-6.114795554921543	0.2655584198590164	5.73132773339218	42.86183375584274	-8.0076067214886	3.451612778077065	48.24397364581883	143.1066867465131	0	0	78.24002228881855	13.16067852399899	20.14686185366944	10.35596775522264	79.53221840119468	0	0
18.71666666666689	-8.193322209772766	-3.452362325718958	20.12177885233041	0	0.9399999999999999	0	45.41805608160885	-10.01501259553503	-10.18721213989535	54.47696745785123	0.9508024486413091	0	0	0	45.41805608160885	-10.01501259553503	-10.18721213989535	54.47696745785123	0.9508024486413091	0	0	0	-6.099671868186658	0.2449117597233173	5.766928992175307	42.84255712676986	-8.063936926654844	3.423044066548861	48.23917333428809	143.1325480416614	0	0	78.25740796600532	13.17061360790048	20.20745973244649	10.79894035539366	79.43398868476906	0	0
18.73333333333355	-8.156375520440369	-3.455266322956456	20.15982208573789	0	0.9399999999999999	0	45.41791816967385	-10.01499534132015	-10.18707400060771	54.47708328830516	0.9508044702641043	0	0	0	45.41791816967385	-10.01499534132015	-10.18707400060771	54.47708328830516	0.9508044702641043	0	0	0	-6.064502251017992	0.2251592659816918	5.79644130140737	42.76996716243471	-8.094417457017087	3.395282014926887	48.22161356805041	143.072131417418	0	0	78.21923033373525	13.15462016728262	20.28706729534607	11.31980104245534	79.24481540363841	0	0
18.75000000000022	-8.143619227181008	-3.462779574762686	20.18780343859098	0	0.9399999999999999	0	45.41779420368826	-10.01497984463596	-10.18694987982035	54.47718741154155	0.9508062875574071	0	0	0	45.41779420368826	-10.01497984463596	-10.18694987982035	54.47718741154155	0.9508062875574071	0	0	0	-6.054763155461321	0.2120057773875818	5.805848004006181	42.803567161462	-8.109487163818557	3.440874590556095	48.18593447060988	143.0576933123472	0	0	78.24864489245464	13.09102208026993	20.31554735349362	11.86563068773806	79.07869787807765	0	0
